<svg xmlns="http://www.w3.org/2000/svg" width="100" height="100" viewBox="0 0 100 100">
  <rect width="100" height="100" rx="23" fill="#1f1b15"/>
  <g transform="translate(19 16.52) scale(0.62)" fill="#f5efe0" fill-rule="evenodd">
    <path d="M 42 16 C 38 18,28 19,22 22 L 9 41 C 8.5 42.5,9 44,10.5 44.5 L 26 49 L 22 88 C 21.8 90,23.5 92,25.5 92 L 74.5 92 C 76.5 92,78.2 90,78 88 L 74 49 L 89.5 44.5 C 91 44,91.5 42.5,91 41 L 78 22 C 72 19,62 18,58 16 C 56.5 22,53.5 28,50 28 C 46.5 28,43.5 22,42 16 Z M 40 56 m -3.6 0 a 3.6 3.6 0 1 0 7.2 0 a 3.6 3.6 0 1 0 -7.2 0 M 50 58 m -4.2 0 a 4.2 4.2 0 1 0 8.4 0 a 4.2 4.2 0 1 0 -8.4 0 M 60 56 m -3.6 0 a 3.6 3.6 0 1 0 7.2 0 a 3.6 3.6 0 1 0 -7.2 0"/>
  </g>
</svg>
